<svg width="24" height="25" viewBox="0 0 24 25" fill="none" xmlns="http://www.w3.org/2000/svg">
<g id="ArrowLeftLine">
<path id="icon" d="M10.7071 6.79289C11.0976 7.18342 11.0976 7.81658 10.7071 8.20711L7.41421 11.5L19 11.5C19.5523 11.5 20 11.9477 20 12.5C20 13.0523 19.5523 13.5 19 13.5L7.41421 13.5L10.7071 16.7929C11.0976 17.1834 11.0976 17.8166 10.7071 18.2071C10.3166 18.5976 9.68342 18.5976 9.2929 18.2071L4.29289 13.2071C4.10536 13.0196 4 12.7652 4 12.5C4 12.2348 4.10536 11.9804 4.29289 11.7929L9.29289 6.79289C9.68342 6.40237 10.3166 6.40237 10.7071 6.79289Z" fill="black"/>
</g>
</svg>
