<svg width="24" height="24" viewBox="0 0 24 24" fill="none" xmlns="http://www.w3.org/2000/svg">
<rect width="24" height="24" rx="12" fill="#282727" fill-opacity="0.7"/>
<path d="M13.3333 7.99999C13.3333 8.73637 12.7364 9.33332 12 9.33332C11.2636 9.33332 10.6667 8.73637 10.6667 7.99999C10.6667 7.26361 11.2636 6.66666 12 6.66666C12.7364 6.66666 13.3333 7.26361 13.3333 7.99999ZM13.3333 12C13.3333 12.7364 12.7364 13.3333 12 13.3333C11.2636 13.3333 10.6667 12.7364 10.6667 12C10.6667 11.2636 11.2636 10.6667 12 10.6667C12.7364 10.6667 13.3333 11.2636 13.3333 12ZM12 17.3333C12.7364 17.3333 13.3333 16.7364 13.3333 16C13.3333 15.2636 12.7364 14.6667 12 14.6667C11.2636 14.6667 10.6667 15.2636 10.6667 16C10.6667 16.7364 11.2636 17.3333 12 17.3333Z" fill="white"/>
</svg>
