<svg width="24" height="24" viewBox="0 0 24 24" fill="none" xmlns="http://www.w3.org/2000/svg">
<g id="Component 9">
<path id="Shape" fill-rule="evenodd" clip-rule="evenodd" d="M1.09088 6.11846C1.09088 5.43604 1.68558 4.88446 2.28028 4.88446H22.0541C22.7974 4.88446 23.3921 5.43604 23.3921 6.11846C23.3921 6.79939 22.7974 7.35247 22.0541 7.35247H2.28028C1.68558 7.35247 1.09088 6.79939 1.09088 6.11846ZM4.80788 12.2884C4.80788 11.6075 5.40258 11.0544 5.99728 11.0544H18.3373C19.0807 11.0544 19.6754 11.6075 19.6754 12.2884C19.6754 12.9694 19.0807 13.5224 18.3373 13.5224H5.99728C5.40258 13.5224 4.80788 12.9694 4.80788 12.2884ZM9.71415 17.2245C9.11945 17.2245 8.52475 17.7775 8.52475 18.4585C8.52475 19.1409 9.11945 19.6925 9.71415 19.6925H14.6204C15.3638 19.6925 15.9585 19.1409 15.9585 18.4585C15.9585 17.7775 15.3638 17.2245 14.6204 17.2245H9.71415Z" fill="#919191"/>
</g>
</svg>
