<svg width="24" height="24" viewBox="0 0 24 24" fill="none" xmlns="http://www.w3.org/2000/svg">
<g id="Component 2">
<path id="icon" d="M3.12132 1.29289C2.7308 0.902369 2.09763 0.902369 1.70711 1.29289C1.31658 1.68342 1.31658 2.31658 1.70711 2.70711L4.55533 5.55533C4.03809 5.99476 3.56769 6.4515 3.14546 6.90187C2.15683 7.95641 1.40207 9.00713 0.894336 9.79329C0.63985 10.1873 0.445792 10.5175 0.313971 10.7518C0.248023 10.869 0.19754 10.9625 0.162753 11.0283C0.145357 11.0611 0.131875 11.0871 0.122338 11.1056L0.11099 11.1279L0.107539 11.1347L0.10637 11.137L0.105925 11.1379C0.105741 11.1383 0.105573 11.1386 1 11.5858L0.105573 11.1386C-0.0351909 11.4201 -0.0351909 11.7515 0.105573 12.033L1 11.5858C0.105573 12.033 0.105741 12.0334 0.105925 12.0337L0.10637 12.0346L0.107539 12.0369L0.11099 12.0438L0.122338 12.066C0.131875 12.0845 0.145357 12.1105 0.162753 12.1434C0.19754 12.2091 0.248023 12.3026 0.313971 12.4198C0.445792 12.6542 0.63985 12.9843 0.894336 13.3783C1.40207 14.1645 2.15683 15.2152 3.14546 16.2698C5.10448 18.3594 8.10049 20.5858 12 20.5858C14.2483 20.5858 16.1963 19.8457 17.8184 18.8184L21.2929 22.2929C21.6834 22.6834 22.3166 22.6834 22.7071 22.2929C23.0976 21.9024 23.0976 21.2692 22.7071 20.8787L19.4447 17.6163C19.4447 17.6163 19.4447 17.6163 19.4447 17.6162L18.0255 16.197C18.0255 16.1971 18.0255 16.1971 18.0255 16.1971L15.2164 13.388C15.2164 13.3879 15.2164 13.3879 15.2164 13.3879L14.4339 12.6054C14.4339 12.6054 14.4338 12.6054 14.4338 12.6054L7.63766 5.80923C7.63767 5.80922 7.63768 5.80922 7.6377 5.80921L6.18171 4.35322C6.1817 4.35323 6.18168 4.35324 6.18167 4.35324L3.12132 1.29289ZM5.97453 6.97453L8.55398 9.55398C8.2023 10.1494 8 10.8444 8 11.5858C8 13.795 9.79086 15.5858 12 15.5858C12.7416 15.5858 13.4365 15.3835 14.0318 15.0318L16.3624 17.3624C15.0829 18.0997 13.6232 18.5858 12 18.5858C8.89951 18.5858 6.39552 16.8123 4.60454 14.9019C3.71817 13.9564 3.03543 13.0071 2.57441 12.2933C2.39492 12.0154 2.25003 11.7747 2.14074 11.5858C2.25003 11.3969 2.39492 11.1563 2.57441 10.8783C3.03543 10.1645 3.71817 9.21522 4.60454 8.26976C5.02281 7.8236 5.47997 7.38491 5.97453 6.97453ZM10.0676 11.0676L12.5182 13.5182C12.353 13.5623 12.1793 13.5858 12 13.5858C10.8954 13.5858 10 12.6904 10 11.5858C10 11.4065 10.0235 11.2328 10.0676 11.0676ZM21.4256 12.2933C20.9783 12.9858 20.3224 13.9 19.4742 14.8173L20.8894 16.2325C21.8609 15.1905 22.6039 14.1552 23.1057 13.3783C23.3601 12.9843 23.5542 12.6542 23.686 12.4198C23.752 12.3026 23.8025 12.2091 23.8372 12.1434C23.8546 12.1105 23.8681 12.0845 23.8777 12.066L23.889 12.0438L23.8925 12.0369L23.8936 12.0346L23.8941 12.0337C23.8943 12.0334 23.8944 12.033 23 11.5858L23.8944 12.033C24.0352 11.7515 24.0352 11.4201 23.8944 11.1386L23 11.5858C23.8944 11.1386 23.8943 11.1383 23.8941 11.1379L23.8936 11.137L23.8925 11.1347L23.889 11.1279L23.8777 11.1056C23.8681 11.0871 23.8546 11.0611 23.8372 11.0283C23.8025 10.9625 23.752 10.869 23.686 10.7518C23.5542 10.5175 23.3601 10.1873 23.1057 9.79329C22.5979 9.00713 21.8432 7.95641 20.8545 6.90187C18.8955 4.81226 15.8995 2.58582 12 2.58582C10.5538 2.58582 9.23179 2.89206 8.04092 3.384L9.60374 4.94683C10.3568 4.71715 11.1563 4.58582 12 4.58582C15.1005 4.58582 17.6045 6.35938 19.3955 8.26976C20.2818 9.21522 20.9646 10.1645 21.4256 10.8783C21.6051 11.1563 21.75 11.3969 21.8593 11.5858C21.75 11.7747 21.6051 12.0154 21.4256 12.2933Z" fill="#919191"/>
</g>
</svg>
