<svg width="24" height="24" viewBox="0 0 24 24" fill="currentColor" xmlns="http://www.w3.org/2000/svg">
<path d="M2 6.11133C2 5.55904 2.44772 5.11133 3 5.11133H14.5C15.0523 5.11133 15.5 5.55904 15.5 6.11133V8.55577C15.5 9.10806 15.9477 9.55577 16.5 9.55577C17.0523 9.55577 17.5 9.10806 17.5 8.55577V6.11133C17.5 4.45447 16.1569 3.11133 14.5 3.11133H3C1.34315 3.11133 0 4.45448 0 6.11133V19.8891C0 21.546 1.34315 22.8891 3 22.8891H14.5C16.1569 22.8891 17.5 21.546 17.5 19.8891V17.4447C17.5 16.8924 17.0523 16.4447 16.5 16.4447C15.9477 16.4447 15.5 16.8924 15.5 17.4447V19.8891C15.5 20.4414 15.0523 20.8891 14.5 20.8891H3C2.44772 20.8891 2 20.4414 2 19.8891V6.11133ZM20.2071 9.29311C19.8166 8.90258 19.1834 8.90258 18.7929 9.29311C18.4024 9.68363 18.4024 10.3168 18.7929 10.7073L20.0858 12.0002H8C7.44772 12.0002 7 12.4479 7 13.0002C7 13.5525 7.44772 14.0002 8 14.0002H20.0858L18.7929 15.2931C18.4024 15.6836 18.4024 16.3168 18.7929 16.7073C19.1834 17.0978 19.8166 17.0978 20.2071 16.7073L23.2071 13.7073C23.5976 13.3168 23.5976 12.6836 23.2071 12.2931L20.2071 9.29311Z"/>
</svg>
