<svg width="24" height="24" viewBox="0 0 24 24" fill="none" xmlns="http://www.w3.org/2000/svg">
<g id="PayPal/color">
<g id="PayPal">
<path id="back" d="M0 12C0 5.37258 5.37258 0 12 0C18.6274 0 24 5.37258 24 12C24 18.6274 18.6274 24 12 24C5.37258 24 0 18.6274 0 12Z" fill="white"/>
<g id="Shape">
<path id="Shape_2" d="M10.107 18.0616L10.3162 16.7328L9.8502 16.722H7.625L9.1714 6.9168C9.1762 6.8872 9.1918 6.8596 9.2146 6.84C9.2374 6.8204 9.2666 6.8096 9.297 6.8096H13.049C14.2946 6.8096 15.1542 7.0688 15.603 7.5804C15.8134 7.8204 15.9474 8.0712 16.0122 8.3472C16.0802 8.6368 16.0814 8.9828 16.015 9.4048L16.0102 9.4356V9.706L16.2206 9.8252C16.3978 9.9192 16.5386 10.0268 16.6466 10.15C16.8266 10.3552 16.943 10.616 16.9922 10.9252C17.043 11.2432 17.0262 11.6216 16.943 12.05C16.847 12.5428 16.6918 12.972 16.4822 13.3232C16.2894 13.6468 16.0438 13.9152 15.7522 14.1232C15.4738 14.3208 15.143 14.4708 14.769 14.5668C14.4066 14.6612 13.9934 14.7088 13.5402 14.7088H13.2482C13.0394 14.7088 12.8366 14.784 12.6774 14.9188C12.5178 15.0564 12.4122 15.2444 12.3798 15.45L12.3578 15.5696L11.9882 17.9116L11.9714 17.9976C11.967 18.0248 11.9594 18.0384 11.9482 18.0476C11.9382 18.056 11.9238 18.0616 11.9098 18.0616H10.107Z" fill="#253B80"/>
<path id="Shape_3" d="M16.4196 9.4668C16.4084 9.5384 16.3956 9.6116 16.3812 9.6868C15.8864 12.2272 14.1936 13.1048 12.0316 13.1048H10.9308C10.6664 13.1048 10.4436 13.2968 10.4024 13.5576L9.83885 17.132L9.67925 18.1452C9.65245 18.3164 9.78445 18.4708 9.95725 18.4708H11.9096C12.1408 18.4708 12.3372 18.3028 12.3736 18.0748L12.3928 17.9756L12.7604 15.6428L12.784 15.5148C12.82 15.286 13.0168 15.118 13.248 15.118H13.54C15.4316 15.118 16.9124 14.35 17.3452 12.1276C17.526 11.1992 17.4324 10.424 16.954 9.8788C16.8092 9.7144 16.6296 9.578 16.4196 9.4668Z" fill="#179BD7"/>
<path id="Shape_4" d="M15.9019 9.2604C15.8263 9.2384 15.7483 9.2184 15.6683 9.2004C15.5879 9.1828 15.5055 9.1672 15.4207 9.1536C15.1239 9.1056 14.7987 9.0828 14.4503 9.0828H11.5095C11.4371 9.0828 11.3683 9.0992 11.3067 9.1288C11.1711 9.194 11.0703 9.3224 11.0459 9.4796L10.4203 13.442L10.4023 13.5576C10.4435 13.2968 10.6663 13.1048 10.9307 13.1048H12.0315C14.1935 13.1048 15.8863 12.2268 16.3811 9.6868C16.3959 9.6116 16.4083 9.5384 16.4195 9.4668C16.2943 9.4004 16.1587 9.3436 16.0127 9.2952C15.9767 9.2832 15.9395 9.2716 15.9019 9.2604Z" fill="#222D65"/>
<path id="Shape_5" d="M11.3066 9.1292C11.3686 9.0996 11.437 9.0832 11.5094 9.0832H14.4502C14.7986 9.0832 15.1238 9.106 15.4206 9.154C15.5054 9.1676 15.5878 9.1832 15.6682 9.2008C15.7482 9.2188 15.8262 9.2388 15.9018 9.2608C15.9394 9.272 15.9766 9.2836 16.013 9.2952C16.159 9.3436 16.2946 9.4008 16.4198 9.4668C16.567 8.528 16.4186 7.8888 15.911 7.31C15.3514 6.6728 14.3414 6.4 13.049 6.4H9.29699C9.03299 6.4 8.80779 6.592 8.76699 6.8532L7.20419 16.7592C7.17339 16.9552 7.32459 17.132 7.52219 17.132H9.83859L10.4202 13.442L11.0458 9.4796C11.0702 9.3224 11.171 9.194 11.3066 9.1292Z" fill="#253B80"/>
</g>
</g>
</g>
</svg>
