<svg width="24" height="24" viewBox="0 0 24 24" fill="none" xmlns="http://www.w3.org/2000/svg">
<g id="Component 9">
<path id="icon" d="M14 20C14 20.5523 14.4477 21 15 21C15.5523 21 16 20.5523 16 20V6.41424L18.2929 8.70714C18.6834 9.09766 19.3166 9.09766 19.7071 8.70714C20.0976 8.31661 20.0976 7.68345 19.7071 7.29292L15.7071 3.29292C15.4211 3.00692 14.991 2.92137 14.6173 3.07615C14.2436 3.23093 14 3.59557 14 4.00003V20ZM10 4.00003C10 3.44775 9.55228 3.00003 9 3.00003C8.44772 3.00003 8 3.44775 8 4.00003V17.5858L5.70711 15.2929C5.31658 14.9024 4.68342 14.9024 4.29289 15.2929C3.90237 15.6834 3.90237 16.3166 4.29289 16.7071L8.29289 20.7071C8.57889 20.9931 9.00901 21.0787 9.38268 20.9239C9.75636 20.7691 10 20.4045 10 20V4.00003Z" fill="currentColor"/>
</g>
</svg>
