<svg width="24" height="24" viewBox="0 0 24 24" fill="currentColor" xmlns="http://www.w3.org/2000/svg">
<path d="M12 1.00002C12.5523 1.00002 13 1.44774 13 2.00002V11.5858L14.7929 9.79292C15.1834 9.40239 15.8166 9.40239 16.2071 9.79292C16.5976 10.1834 16.5976 10.8166 16.2071 11.2071L12.7071 14.7071C12.3166 15.0977 11.6834 15.0977 11.2929 14.7071L7.79289 11.2071C7.40237 10.8166 7.40237 10.1834 7.79289 9.79292C8.18342 9.40239 8.81658 9.40239 9.20711 9.79292L11 11.5858V2.00002C11 1.44774 11.4477 1.00002 12 1.00002ZM2 9.50002C2.55228 9.50002 3 9.94774 3 10.5V19C3 19.5523 3.44772 20 4 20H20C20.5523 20 21 19.5523 21 19V10.5C21 9.94774 21.4477 9.50002 22 9.50002C22.5523 9.50002 23 9.94774 23 10.5V19C23 20.6569 21.6569 22 20 22H4C2.34315 22 1 20.6569 1 19V10.5C1 9.94774 1.44772 9.50002 2 9.50002Z"/>
</svg>
