<svg width="40" height="41" viewBox="0 0 40 41" fill="none" xmlns="http://www.w3.org/2000/svg">
<g id="Receipt">
<path id="icon" d="M1.66797 3.83335C1.66797 2.91288 2.41416 2.16669 3.33464 2.16669H36.668C37.5884 2.16669 38.3346 2.91288 38.3346 3.83335C38.3346 4.75383 37.5884 5.50002 36.668 5.50002H33.3346V30.5C33.3346 30.942 33.159 31.366 32.8465 31.6785L26.1798 38.3452C25.8673 38.6578 25.4433 38.8334 25.0013 38.8334H8.33463C7.41416 38.8334 6.66797 38.0872 6.66797 37.1667V5.50002H3.33464C2.41416 5.50002 1.66797 4.75383 1.66797 3.83335ZM10.0013 5.50002V35.5H24.3109L30.0013 29.8097V5.50002H10.0013ZM13.3346 15.5C13.3346 14.5795 14.0808 13.8334 15.0013 13.8334H25.0013C25.9218 13.8334 26.668 14.5795 26.668 15.5C26.668 16.4205 25.9218 17.1667 25.0013 17.1667H15.0013C14.0808 17.1667 13.3346 16.4205 13.3346 15.5ZM13.3346 22.1667C13.3346 21.2462 14.0808 20.5 15.0013 20.5H20.0013C20.9218 20.5 21.668 21.2462 21.668 22.1667C21.668 23.0872 20.9218 23.8334 20.0013 23.8334H15.0013C14.0808 23.8334 13.3346 23.0872 13.3346 22.1667Z" fill="#FF0151"/>
</g>
</svg>
