<svg width="24" height="22" viewBox="0 0 24 22" fill="currentColor"  xmlns="http://www.w3.org/2000/svg">
<path d="M3.12132 0.707078C2.7308 0.316554 2.09763 0.316554 1.70711 0.707078C1.31658 1.0976 1.31658 1.73077 1.70711 2.12129L4.55533 4.96952C4.03809 5.40895 3.56769 5.86568 3.14546 6.31606C2.15683 7.3706 1.40207 8.42131 0.894336 9.20747C0.63985 9.60152 0.445792 9.93164 0.313971 10.166C0.248023 10.2832 0.19754 10.3767 0.162753 10.4424C0.145357 10.4753 0.131875 10.5013 0.122338 10.5198L0.11099 10.542L0.107539 10.5489L0.10637 10.5512L0.105925 10.5521C0.105741 10.5525 0.105573 10.5528 1 11L0.105573 10.5528C-0.0351909 10.8343 -0.0351909 11.1657 0.105573 11.4472L1 11C0.105573 11.4472 0.105741 11.4475 0.105925 11.4479L0.10637 11.4488L0.107539 11.4511L0.11099 11.458L0.122338 11.4802C0.131875 11.4987 0.145357 11.5247 0.162753 11.5576C0.19754 11.6233 0.248023 11.7168 0.313971 11.834C0.445792 12.0684 0.63985 12.3985 0.894336 12.7925C1.40207 13.5787 2.15683 14.6294 3.14546 15.6839C5.10448 17.7736 8.10049 20 12 20C14.2483 20 16.1963 19.2599 17.8184 18.2325L21.2929 21.7071C21.6834 22.0976 22.3166 22.0976 22.7071 21.7071C23.0976 21.3166 23.0976 20.6834 22.7071 20.2929L19.4447 17.0305C19.4447 17.0304 19.4447 17.0304 19.4447 17.0304L18.0255 15.6112C18.0255 15.6112 18.0255 15.6113 18.0255 15.6113L15.2164 12.8022C15.2164 12.8021 15.2164 12.8021 15.2164 12.8021L14.4339 12.0196C14.4339 12.0196 14.4338 12.0196 14.4338 12.0196L7.63766 5.22342C7.63767 5.22341 7.63768 5.2234 7.6377 5.22339L6.18171 3.7674C6.1817 3.76741 6.18168 3.76742 6.18167 3.76743L3.12132 0.707078ZM5.97453 6.38871L8.55398 8.96816C8.2023 9.56361 8 10.2586 8 11C8 13.2091 9.79086 15 12 15C12.7416 15 13.4365 14.7977 14.0318 14.446L16.3624 16.7766C15.0829 17.5139 13.6232 18 12 18C8.89951 18 6.39552 16.2264 4.60454 14.3161C3.71817 13.3706 3.03543 12.4213 2.57441 11.7075C2.39492 11.4296 2.25003 11.1889 2.14074 11C2.25003 10.8111 2.39492 10.5704 2.57441 10.2925C3.03543 9.57869 3.71817 8.6294 4.60454 7.68394C5.02281 7.23779 5.47997 6.7991 5.97453 6.38871ZM10.0676 10.4818L12.5182 12.9324C12.353 12.9765 12.1793 13 12 13C10.8954 13 10 12.1046 10 11C10 10.8206 10.0235 10.647 10.0676 10.4818ZM21.4256 11.7075C20.9783 12.4 20.3224 13.3142 19.4742 14.2315L20.8894 15.6467C21.8609 14.6047 22.6039 13.5694 23.1057 12.7925C23.3601 12.3985 23.5542 12.0684 23.686 11.834C23.752 11.7168 23.8025 11.6233 23.8372 11.5576C23.8546 11.5247 23.8681 11.4987 23.8777 11.4802L23.889 11.458L23.8925 11.4511L23.8936 11.4488L23.8941 11.4479C23.8943 11.4475 23.8944 11.4472 23 11L23.8944 11.4472C24.0352 11.1657 24.0352 10.8343 23.8944 10.5528L23 11C23.8944 10.5528 23.8943 10.5525 23.8941 10.5521L23.8936 10.5512L23.8925 10.5489L23.889 10.542L23.8777 10.5198C23.8681 10.5013 23.8546 10.4753 23.8372 10.4424C23.8025 10.3767 23.752 10.2832 23.686 10.166C23.5542 9.93164 23.3601 9.60152 23.1057 9.20747C22.5979 8.42131 21.8432 7.3706 20.8545 6.31606C18.8955 4.22644 15.8995 2 12 2C10.5538 2 9.23179 2.30625 8.04092 2.79818L9.60374 4.36101C10.3568 4.13133 11.1563 4 12 4C15.1005 4 17.6045 5.77356 19.3955 7.68394C20.2818 8.6294 20.9646 9.57869 21.4256 10.2925C21.6051 10.5704 21.75 10.8111 21.8593 11C21.75 11.1889 21.6051 11.4296 21.4256 11.7075Z" />
</svg>
