<svg width="24" height="25" viewBox="0 0 24 25" fill="none" xmlns="http://www.w3.org/2000/svg">
<path d="M3 3.5C1.34315 3.5 0 4.84315 0 6.5V18.5C0 20.1569 1.34314 21.5 3 21.5H21C22.6569 21.5 24 20.1569 24 18.5V6.5C24 4.84315 22.6569 3.5 21 3.5H3ZM2 7.03518L10.3359 12.5924C11.3436 13.2642 12.6564 13.2642 13.6641 12.5925L22 7.03518V18.5C22 19.0523 21.5523 19.5 21 19.5H3C2.44772 19.5 2 19.0523 2 18.5V7.03518ZM20.6972 5.5L12.5547 10.9283C12.2188 11.1523 11.7812 11.1523 11.4453 10.9283L3.30278 5.5H20.6972Z" fill="#FF0151"/>
</svg>
