<svg width="40" height="40" viewBox="0 0 40 40" fill="none" xmlns="http://www.w3.org/2000/svg">
<rect x="-0.5" y="0.5" width="39" height="39" rx="19.5" transform="matrix(-1 0 0 1 39 0)" fill="white"/>
<path d="M16.2929 13.2929C15.9024 13.6834 15.9024 14.3166 16.2929 14.7071L21.5858 20L16.2929 25.2929C15.9024 25.6834 15.9024 26.3166 16.2929 26.7071C16.6834 27.0976 17.3166 27.0976 17.7071 26.7071L23.7071 20.7071C24.0976 20.3166 24.0976 19.6834 23.7071 19.2929L17.7071 13.2929C17.3166 12.9024 16.6834 12.9024 16.2929 13.2929Z" fill="#919191"/>
<rect x="-0.5" y="0.5" width="39" height="39" rx="19.5" transform="matrix(-1 0 0 1 39 0)" stroke="#D2D2D2"/>
</svg>
