<svg width="24" height="25" viewBox="0 0 24 25" fill="none" xmlns="http://www.w3.org/2000/svg">
<path d="M12 2.5C12.5523 2.5 13 2.94772 13 3.5V13.0858L14.7929 11.2929C15.1834 10.9024 15.8166 10.9024 16.2071 11.2929C16.5976 11.6834 16.5976 12.3166 16.2071 12.7071L12.7071 16.2071C12.3166 16.5976 11.6834 16.5976 11.2929 16.2071L7.79289 12.7071C7.40237 12.3166 7.40237 11.6834 7.79289 11.2929C8.18342 10.9024 8.81658 10.9024 9.20711 11.2929L11 13.0858V3.5C11 2.94772 11.4477 2.5 12 2.5ZM2 11C2.55228 11 3 11.4477 3 12V20.5C3 21.0523 3.44772 21.5 4 21.5H20C20.5523 21.5 21 21.0523 21 20.5V12C21 11.4477 21.4477 11 22 11C22.5523 11 23 11.4477 23 12V20.5C23 22.1569 21.6569 23.5 20 23.5H4C2.34315 23.5 1 22.1569 1 20.5V12C1 11.4477 1.44772 11 2 11Z" fill="#919191"/>
</svg>
