<svg width="24" height="20" viewBox="0 0 24 20"  xmlns="http://www.w3.org/2000/svg">
<path d="M18.7929 0.792893C19.1834 0.402369 19.8166 0.402369 20.2071 0.792893L23.7071 4.29289C24.0976 4.68342 24.0976 5.31658 23.7071 5.70711L20.2071 9.20711C19.8166 9.59763 19.1834 9.59763 18.7929 9.20711C18.4024 8.81658 18.4024 8.18342 18.7929 7.79289L20.5858 6H8C4.68629 6 2 8.68629 2 12C2 15.3137 4.68629 18 8 18H16C19.3137 18 22 15.3137 22 12V11C22 10.4477 22.4477 10 23 10C23.5523 10 24 10.4477 24 11V12C24 16.4183 20.4183 20 16 20H8C3.58172 20 0 16.4183 0 12C0 7.58172 3.58172 4 8 4H20.5858L18.7929 2.20711C18.4024 1.81658 18.4024 1.18342 18.7929 0.792893Z"/>
</svg>
