<svg width="24" height="24" viewBox="0 0 24 24" fill="none" xmlns="http://www.w3.org/2000/svg">
<path d="M8.57346 6.10145L15.8297 11.1808C15.8936 11.2256 15.9504 11.276 16 11.3307V7.00003C16 6.44774 16.4477 6.00003 17 6.00003C17.5523 6.00003 18 6.44774 18 7.00003V17C18 17.5523 17.5523 18 17 18C16.4477 18 16 17.5523 16 17V12.6693C15.9504 12.7241 15.8936 12.7745 15.8297 12.8193L8.57346 17.8986C7.91069 18.3625 7 17.8884 7 17.0794V6.92069C7 6.11166 7.91068 5.63751 8.57346 6.10145Z" fill="#919191"/>
</svg>
