<svg width="24" height="24" viewBox="0 0 24 24" fill="none" xmlns="http://www.w3.org/2000/svg">
<path d="M15.4265 6.10145L8.17033 11.1808C8.10636 11.2256 8.04958 11.276 8 11.3307V7.00003C8 6.44774 7.55228 6.00003 7 6.00003C6.44771 6.00003 6 6.44774 6 7.00003V17C6 17.5523 6.44771 18 7 18C7.55228 18 8 17.5523 8 17V12.6693C8.04958 12.7241 8.10636 12.7745 8.17033 12.8193L15.4265 17.8986C16.0893 18.3625 17 17.8884 17 17.0794V6.92069C17 6.11166 16.0893 5.63751 15.4265 6.10145Z" fill="#919191"/>
</svg>
