<svg width="24" height="24" viewBox="0 0 24 24" fill="currentColor" xmlns="http://www.w3.org/2000/svg">
<path d="M20.0061 3.76007C19.5974 3.38856 18.9649 3.41868 18.5934 3.82733C18.2219 4.23599 18.252 4.86844 18.6607 5.23995L19.6568 6.14547C17.6904 6.39316 16.0865 6.94279 14.7183 7.68295C13.2069 8.5005 12.019 9.53246 10.9793 10.5624C8.83313 8.31207 6.47878 6.00001 1.91675 6.00001C1.36446 6.00001 0.916748 6.44772 0.916748 7.00001C0.916748 7.55229 1.36446 8.00001 1.91675 8.00001C5.63672 8.00001 7.44793 9.76829 9.58445 12C7.44793 14.2317 5.63672 16 1.91675 16C1.36446 16 0.916748 16.4477 0.916748 17C0.916748 17.5523 1.36446 18 1.91675 18C6.47878 18 8.83313 15.6879 10.9793 13.4376C12.019 14.4676 13.2069 15.4995 14.7183 16.3171C16.0865 17.0572 17.6904 17.6069 19.6568 17.8545L18.6607 18.7601C18.252 19.1316 18.2219 19.764 18.5934 20.1727C18.9649 20.5813 19.5974 20.6115 20.0061 20.2399L22.756 17.7399C23.1402 17.3907 23.1932 16.8056 22.878 16.393L20.5864 13.393C20.2511 12.9541 19.6236 12.8701 19.1847 13.2053C18.7458 13.5406 18.6618 14.1682 18.997 14.607L19.9678 15.8778C18.2028 15.6628 16.8196 15.1799 15.6699 14.558C14.3819 13.8612 13.3496 12.9712 12.3704 12C13.3496 11.0288 14.3819 10.1388 15.6699 9.44206C16.8196 8.82011 18.2028 8.33722 19.9678 8.12218L18.997 9.39297C18.6618 9.83185 18.7458 10.4594 19.1847 10.7947C19.6236 11.1299 20.2511 11.0459 20.5864 10.607L22.878 7.60705C23.1932 7.19446 23.1402 6.60931 22.756 6.26007L20.0061 3.76007Z" fill="currentColor"/>
</svg>
