<svg width="24" height="25" viewBox="0 0 24 25" fill="none" xmlns="http://www.w3.org/2000/svg">
<path d="M15.5944 7.3076C13.168 4.88119 9.23401 4.88119 6.8076 7.3076C4.38119 9.73401 4.38119 13.668 6.8076 16.0944C9.23401 18.5208 13.168 18.5208 15.5944 16.0944C18.0208 13.668 18.0208 9.73401 15.5944 7.3076ZM5.39338 5.89338C8.60084 2.68593 13.8012 2.68593 17.0086 5.89338C19.9767 8.86148 20.1982 13.5361 17.6731 16.7589L21.799 20.8848C22.1895 21.2753 22.1895 21.9085 21.799 22.299C21.4084 22.6895 20.7753 22.6895 20.3848 22.299L16.2589 18.1731C13.0361 20.6982 8.36148 20.4767 5.39338 17.5086C2.18593 14.3012 2.18593 9.10084 5.39338 5.89338Z" fill="#D2D2D2"/>
</svg>
