<svg width="24" height="24" viewBox="0 0 24 24" fill="currentColor" xmlns="http://www.w3.org/2000/svg">
<path d="M13.7929 3.29289C14.1834 2.90237 14.8166 2.90237 15.2071 3.29289L19.8787 7.96447C20.2692 8.35499 20.2692 8.98816 19.8787 9.37868L9.08579 20.1716H3V14.0858L13.7929 3.29289ZM16.6213 1.87868C15.4497 0.707107 13.5503 0.707107 12.3787 1.87868L1.58579 12.6716C1.21071 13.0466 1 13.5554 1 14.0858V20.1716C1 21.2761 1.89543 22.1716 3 22.1716H9.08579C9.61622 22.1716 10.1249 21.9609 10.5 21.5858L21.2929 10.7929C22.4645 9.62132 22.4645 7.72183 21.2929 6.55025L16.6213 1.87868ZM6 16.1716C6 15.6193 6.44772 15.1716 7 15.1716C7.55228 15.1716 8 15.6193 8 16.1716C8 16.7239 7.55228 17.1716 7 17.1716C6.44772 17.1716 6 16.7239 6 16.1716ZM7 13.1716C5.34315 13.1716 4 14.5147 4 16.1716C4 17.8284 5.34315 19.1716 7 19.1716C8.65685 19.1716 10 17.8284 10 16.1716C10 14.5147 8.65685 13.1716 7 13.1716Z"/>
</svg>
