<svg width="24" height="24" viewBox="0 0 24 24" fill="currentColor" xmlns="http://www.w3.org/2000/svg">
<path d="M23 9.17477C23 7.51792 21.6569 6.17477 20 6.17477H19.5V4.00063C19.5 2.16473 17.8658 0.759453 16.0506 1.03448L3.55058 2.92842C2.08402 3.15063 1 4.41126 1 5.89457V20.1748C1 21.8316 2.34315 23.1748 4 23.1748H20C21.6569 23.1748 23 21.8316 23 20.1748V9.17477ZM17.5 4.00063V6.17477H4C3.64936 6.17477 3.31278 6.23492 3 6.34548V5.89457C3 5.40013 3.36134 4.97992 3.85019 4.90585L16.3502 3.01191C16.9553 2.92024 17.5 3.38866 17.5 4.00063ZM3 9.17477C3 8.62248 3.44772 8.17477 4 8.17477H20C20.5523 8.17477 21 8.62249 21 9.17477V11.1748H17.5C15.567 11.1748 14 12.7418 14 14.6748C14 16.6078 15.567 18.1748 17.5 18.1748H21V20.1748C21 20.7271 20.5523 21.1748 20 21.1748H4C3.44772 21.1748 3 20.7271 3 20.1748V9.17477ZM21 16.1748H17.5C16.6716 16.1748 16 15.5032 16 14.6748C16 13.8463 16.6716 13.1748 17.5 13.1748H21V16.1748Z"/>
</svg>
