<svg width="24" height="24" viewBox="0 0 24 24" fill="none" xmlns="http://www.w3.org/2000/svg">
<g id="Left menu icon">
<path id="icon" d="M12 1C12.5523 1 13 1.44772 13 2V3.07378C14.5364 3.30481 15.6883 4.04201 16.4742 4.76321C16.6268 4.90322 16.7662 5.04312 16.8928 5.17939C17.2688 5.58394 17.1569 6.21298 16.7055 6.53125C16.2542 6.84952 15.6352 6.73376 15.2397 6.34821C15.2017 6.31115 15.1625 6.27396 15.122 6.23679C14.6092 5.76622 13.9107 5.30865 13 5.10716V6.39227L13 11.0424C14.2472 11.1531 15.3734 11.4887 16.2544 12.1504C17.4165 13.0233 18 14.3467 18 16C18 17.7112 17.2779 19.0469 16.1119 19.9266C15.2329 20.5898 14.1441 20.9645 13 21.099V22C13 22.5523 12.5523 23 12 23C11.4477 23 11 22.5523 11 22V21.0672C9.56242 20.8116 8.34014 20.0514 7.47297 19.3604C7.268 19.1971 7.07835 19.034 6.90551 18.8769C6.49681 18.5055 6.52227 17.8694 6.92668 17.4932C7.33109 17.1171 7.96082 17.1443 8.37582 17.5087C8.48378 17.6035 8.59846 17.6999 8.71933 17.7962C9.38016 18.3228 10.1634 18.7957 11 19.0197L11 12.9346C8.04043 12.5404 6 10.418 6 8C6 6.74047 6.48741 5.46609 7.52581 4.51321C8.3779 3.73128 9.54616 3.21445 11 3.05355V2C11 1.44772 11.4477 1 12 1ZM9.94054 5.34207C9.49645 5.51483 9.14693 5.74005 8.87804 5.98679C8.28182 6.53391 8 7.25953 8 8C8 9.1414 9.00188 10.5555 11 10.9142L11 5.70575V5.06942C10.5987 5.12854 10.2471 5.22281 9.94054 5.34207ZM13 19.0808C13.7628 18.9604 14.4163 18.7005 14.9073 18.33C15.5683 17.8314 16 17.0888 16 16C16 14.8533 15.622 14.1767 15.0533 13.7496C14.5894 13.4011 13.9129 13.1543 13 13.0522L13 19.0808Z" fill="currentColor"/>
</g>
</svg>
