<svg width="24" height="24" viewBox="0 0 24 24" fill="none" xmlns="http://www.w3.org/2000/svg">
<g id="Left menu icon">
<path id="icon" d="M9 3C7.34315 3 6 4.34315 6 6C6 7.65685 7.34315 9 9 9C10.6569 9 12 7.65685 12 6C12 4.34315 10.6569 3 9 3ZM4 6C4 3.23858 6.23858 1 9 1C11.7614 1 14 3.23858 14 6C14 8.76142 11.7614 11 9 11C6.23858 11 4 8.76142 4 6ZM1 18C1 15.2386 3.23858 13 6 13H12C14.7614 13 17 15.2386 17 18V21C17 21.5523 16.5523 22 16 22C15.4477 22 15 21.5523 15 21V18C15 16.3431 13.6569 15 12 15H6C4.34315 15 3 16.3431 3 18V21C3 21.5523 2.55228 22 2 22C1.44772 22 1 21.5523 1 21V18ZM15.5731 1.91555C15.7803 1.40361 16.3633 1.1566 16.8752 1.36382C18.7058 2.10481 20 3.90007 20 6C20 8.09994 18.7058 9.89519 16.8752 10.6362C16.3633 10.8434 15.7803 10.5964 15.5731 10.0845C15.3659 9.57253 15.6129 8.98953 16.1248 8.78231C17.2261 8.33652 18 7.25744 18 6C18 4.74256 17.2261 3.66349 16.1248 3.2177C15.6129 3.01047 15.3659 2.42748 15.5731 1.91555ZM18.2434 13.8833C18.4086 13.3563 18.9697 13.063 19.4967 13.2282C21.5259 13.8641 23 15.7586 23 18V21C23 21.5523 22.5523 22 22 22C21.4477 22 21 21.5523 21 21V18C21 16.6576 20.1175 15.5186 18.8986 15.1366C18.3716 14.9715 18.0783 14.4103 18.2434 13.8833Z" fill="currentColor"/>
</g>
</svg>
