<svg width="24" height="24" viewBox="0 0 24 24" fill="none" xmlns="http://www.w3.org/2000/svg">
<path d="M19.2258 3.06065C20.5927 4.42748 20.5927 6.64356 19.2258 8.0104L8.05444 19.1818C7.71992 19.5163 7.31103 19.767 6.86115 19.9133L3.9452 20.8619C2.39062 21.3676 0.918915 19.8959 1.42461 18.3413L2.37317 15.4253C2.51951 14.9754 2.77018 14.5666 3.1047 14.232L14.2761 3.06065C15.6429 1.69382 17.859 1.69381 19.2258 3.06065ZM15.6903 4.47486L4.51891 15.6462C4.4074 15.7578 4.32385 15.8941 4.27507 16.044L3.32652 18.96L6.24247 18.0114C6.39243 17.9626 6.52872 17.8791 6.64023 17.7676L17.8116 6.59618C18.3974 6.0104 18.3974 5.06065 17.8116 4.47486C17.2258 3.88908 16.2761 3.88908 15.6903 4.47486ZM10.0002 21C9.44794 21 9.00023 21.4477 9.00023 22C9.00023 22.5523 9.44794 23 10.0002 23H21.0002C21.5525 23 22.0002 22.5523 22.0002 22C22.0002 21.4477 21.5525 21 21.0002 21H10.0002Z" fill="#919191"/>
</svg>
