<svg width="24" height="24" viewBox="0 0 24 24" fill="none" xmlns="http://www.w3.org/2000/svg">
<g clip-path="url(#clip0_409_1848)">
<path d="M7.7782 13.4351C5.82558 11.4825 5.82558 8.31663 7.7782 6.36401L12.0208 2.12137C13.9735 0.168746 17.1393 0.168745 19.0919 2.12137C21.0445 4.07399 21.0445 7.23981 19.0919 9.19244L18.7384 9.54599C18.3478 9.93651 17.7147 9.93651 17.3241 9.54599C16.9336 9.15546 16.9336 8.5223 17.3241 8.13177L17.6777 7.77822C18.8493 6.60665 18.8493 4.70715 17.6777 3.53558C16.5061 2.36401 14.6066 2.36401 13.4351 3.53558L9.19242 7.77822C8.02084 8.94979 8.02084 10.8493 9.19242 12.0209C9.8259 12.6543 10.6706 12.9455 11.5019 12.8937C12.0532 12.8593 12.5279 13.2783 12.5622 13.8295C12.5966 14.3807 12.1776 14.8554 11.6264 14.8898C10.2468 14.9758 8.83427 14.4911 7.7782 13.4351ZM4.24267 21.2133C2.29005 19.2606 2.29005 16.0948 4.24267 14.1422L4.59622 13.7886C4.98675 13.3981 5.61991 13.3981 6.01044 13.7886C6.40096 14.1792 6.40096 14.8123 6.01044 15.2028L5.65688 15.5564C4.48531 16.728 4.48531 18.6275 5.65688 19.799C6.82846 20.9706 8.72795 20.9706 9.89952 19.799L14.1422 15.5564C15.3137 14.3848 15.3137 12.4853 14.1422 11.3138C13.6398 10.8114 13.0062 10.5253 12.3517 10.4532C11.8027 10.3928 11.4067 9.89876 11.4672 9.34979C11.5276 8.80083 12.0216 8.4048 12.5706 8.46524C13.6609 8.58529 14.721 9.06412 15.5564 9.89954C17.509 11.8522 17.509 15.018 15.5564 16.9706L11.3137 21.2133C9.36112 23.1659 6.19529 23.1659 4.24267 21.2133Z" fill="#FF0151"/>
</g>
<defs>
<clipPath id="clip0_409_1848">
<rect width="24" height="24" fill="white"/>
</clipPath>
</defs>
</svg>
